<svg xmlns="http://www.w3.org/2000/svg" viewBox="0 4 16 7" width="48" height="48" shape-rendering="crispEdges">
  <rect x="1" y="4" width="2" height="1" fill="#7c3aed"/>
  <rect x="13" y="4" width="2" height="1" fill="#7c3aed"/>
  <rect x="0" y="5" width="3" height="1" fill="#7c3aed"/>
  <rect x="13" y="5" width="3" height="1" fill="#7c3aed"/>
  <rect x="0" y="6" width="4" height="1" fill="#6d28d9"/>
  <rect x="12" y="6" width="4" height="1" fill="#6d28d9"/>
  <rect x="1" y="7" width="4" height="1" fill="#6d28d9"/>
  <rect x="11" y="7" width="4" height="1" fill="#6d28d9"/>
  <rect x="2" y="8" width="12" height="1" fill="#5b21b6"/>
  <rect x="4" y="9" width="8" height="1" fill="#5b21b6"/>
  <rect x="5" y="8" width="2" height="1" fill="#fbbf24"/>
  <rect x="9" y="8" width="2" height="1" fill="#fbbf24"/>
  <rect x="6" y="8" width="1" height="1" fill="#1a1a2e"/>
  <rect x="10" y="8" width="1" height="1" fill="#1a1a2e"/>
  <rect x="5" y="10" width="2" height="1" fill="#4c1d95"/>
  <rect x="9" y="10" width="2" height="1" fill="#4c1d95"/>
  <rect x="7" y="10" width="2" height="1" fill="#4c1d95"/>
</svg>
