<svg xmlns="http://www.w3.org/2000/svg" viewBox="3 2 10 9" width="48" height="48" shape-rendering="crispEdges">
  <rect x="5" y="2" width="6" height="1" fill="#e5e5e5"/>
  <rect x="4" y="3" width="8" height="1" fill="#f5f5f5"/>
  <rect x="3" y="4" width="10" height="1" fill="#f5f5f5"/>
  <rect x="3" y="5" width="10" height="1" fill="#e5e5e5"/>
  <rect x="5" y="5" width="2" height="1" fill="#1a1a2e"/>
  <rect x="9" y="5" width="2" height="1" fill="#1a1a2e"/>
  <rect x="3" y="6" width="10" height="1" fill="#e5e5e5"/>
  <rect x="5" y="6" width="2" height="1" fill="#1a1a2e"/>
  <rect x="9" y="6" width="2" height="1" fill="#1a1a2e"/>
  <rect x="4" y="7" width="8" height="1" fill="#d4d4d4"/>
  <rect x="7" y="7" width="2" height="1" fill="#78716c"/>
  <rect x="5" y="8" width="6" height="1" fill="#d4d4d4"/>
  <rect x="5" y="9" width="6" height="1" fill="#a8a29e"/>
  <rect x="5" y="9" width="1" height="1" fill="#d4d4d4"/>
  <rect x="7" y="9" width="1" height="1" fill="#d4d4d4"/>
  <rect x="9" y="9" width="1" height="1" fill="#d4d4d4"/>
  <rect x="6" y="10" width="4" height="1" fill="#a8a29e"/>
</svg>
