<svg xmlns="http://www.w3.org/2000/svg" viewBox="2 3 12 9" width="48" height="48" shape-rendering="crispEdges">
  <rect x="5" y="3" width="6" height="1" fill="#4ade80"/>
  <rect x="4" y="4" width="8" height="1" fill="#4ade80"/>
  <rect x="3" y="5" width="10" height="1" fill="#4ade80"/>
  <rect x="3" y="6" width="10" height="1" fill="#22c55e"/>
  <rect x="5" y="6" width="2" height="1" fill="#fff"/>
  <rect x="9" y="6" width="2" height="1" fill="#fff"/>
  <rect x="6" y="6" width="1" height="1" fill="#1a1a2e"/>
  <rect x="10" y="6" width="1" height="1" fill="#1a1a2e"/>
  <rect x="3" y="7" width="10" height="1" fill="#22c55e"/>
  <rect x="3" y="8" width="10" height="1" fill="#16a34a"/>
  <rect x="2" y="9" width="12" height="1" fill="#16a34a"/>
  <rect x="2" y="10" width="12" height="1" fill="#15803d"/>
  <rect x="2" y="11" width="3" height="1" fill="#15803d"/>
  <rect x="7" y="11" width="2" height="1" fill="#15803d"/>
  <rect x="11" y="11" width="3" height="1" fill="#15803d"/>
</svg>
