<svg xmlns="http://www.w3.org/2000/svg" viewBox="2 3 12 7" width="48" height="48" shape-rendering="crispEdges">
  <rect x="6" y="3" width="4" height="1" fill="#44403c"/>
  <rect x="5" y="4" width="6" height="1" fill="#57534e"/>
  <rect x="5" y="5" width="6" height="1" fill="#44403c"/>
  <rect x="6" y="5" width="1" height="1" fill="#ef4444"/>
  <rect x="9" y="5" width="1" height="1" fill="#ef4444"/>
  <rect x="5" y="6" width="6" height="1" fill="#44403c"/>
  <rect x="6" y="7" width="4" height="1" fill="#57534e"/>
  <rect x="7" y="8" width="2" height="1" fill="#44403c"/>
  <rect x="3" y="4" width="1" height="1" fill="#292524"/>
  <rect x="2" y="3" width="1" height="1" fill="#292524"/>
  <rect x="12" y="4" width="1" height="1" fill="#292524"/>
  <rect x="13" y="3" width="1" height="1" fill="#292524"/>
  <rect x="3" y="6" width="1" height="1" fill="#292524"/>
  <rect x="2" y="7" width="1" height="1" fill="#292524"/>
  <rect x="12" y="6" width="1" height="1" fill="#292524"/>
  <rect x="13" y="7" width="1" height="1" fill="#292524"/>
  <rect x="4" y="8" width="1" height="1" fill="#292524"/>
  <rect x="3" y="9" width="1" height="1" fill="#292524"/>
  <rect x="11" y="8" width="1" height="1" fill="#292524"/>
  <rect x="12" y="9" width="1" height="1" fill="#292524"/>
</svg>
